<?xml version="1.0" standalone="no"?>
<!DOCTYPE svg PUBLIC "-//W3C//DTD SVG 20010904//EN"
 "http://www.w3.org/TR/2001/REC-SVG-20010904/DTD/svg10.dtd">
<svg version="1.0" xmlns="http://www.w3.org/2000/svg"
 width="324.000000pt" height="324.000000pt" viewBox="0 0 324.000000 324.000000"
 preserveAspectRatio="xMidYMid meet">
<metadata>
Created by potrace 1.11, written by Peter Selinger 2001-2013
</metadata>
<g transform="translate(0.000000,324.000000) scale(0.100000,-0.100000)"
fill="#000000" stroke="none">
<path d="M1574 3190 c-15 -22 -31 -40 -35 -40 -5 0 -9 -5 -9 -12 0 -6 -12 -27
-27 -47 -16 -20 -32 -43 -38 -52 -5 -9 -54 -81 -107 -159 -54 -79 -98 -147
-98 -151 0 -5 -4 -9 -10 -9 -5 0 -10 -7 -10 -15 0 -8 -4 -15 -8 -15 -5 0 -14
-11 -20 -25 -7 -14 -17 -31 -22 -38 -16 -17 -120 -178 -131 -202 -14 -29 -30
-54 -66 -106 -18 -26 -29 -49 -26 -53 4 -3 1 -6 -6 -6 -7 0 -9 -4 -6 -10 3 -5
2 -10 -3 -10 -5 0 -17 -16 -26 -35 -9 -19 -21 -35 -26 -35 -6 0 -9 -3 -8 -7 2
-8 -31 -75 -41 -83 -10 -8 -65 -124 -63 -132 1 -5 -2 -8 -6 -8 -5 0 -35 -53
-68 -117 -32 -65 -63 -121 -69 -125 -6 -5 -6 -8 0 -8 5 0 4 -5 -3 -12 -7 -7
-12 -20 -12 -30 0 -10 -4 -18 -10 -18 -5 0 -10 -6 -10 -14 0 -8 -11 -36 -24
-63 -25 -50 -92 -240 -100 -283 -2 -14 -5 -25 -6 -25 -6 0 -20 -123 -22 -190
-3 -115 26 -255 74 -363 12 -26 21 -50 20 -54 -1 -5 3 -8 9 -8 5 0 8 -4 5 -9
-4 -5 -3 -11 2 -13 4 -1 20 -24 35 -50 15 -26 33 -53 40 -60 7 -7 18 -20 23
-30 22 -40 137 -150 230 -220 111 -85 359 -195 479 -214 22 -3 44 -9 49 -12
15 -9 280 -11 327 -2 24 5 58 10 74 13 35 5 113 25 135 34 8 3 22 7 30 9 8 2
23 7 35 12 11 6 47 22 80 38 33 15 63 32 66 37 3 5 8 8 10 8 13 -2 49 13 49
20 0 5 6 9 14 9 8 0 16 3 18 8 2 4 23 21 48 37 25 17 59 42 75 57 17 16 33 28
37 28 4 0 10 9 13 20 4 11 10 18 14 16 9 -6 97 94 93 106 -1 4 5 8 14 8 8 0
12 5 9 10 -3 6 -2 10 4 10 5 0 12 8 15 18 4 10 14 27 24 38 24 27 65 104 55
104 -4 0 -2 4 6 9 8 5 15 17 16 28 1 10 7 28 13 40 7 12 19 48 27 80 59 218
32 430 -90 718 -10 22 -17 41 -17 42 1 2 -14 34 -33 73 -19 38 -35 74 -35 80
0 5 -4 10 -10 10 -5 0 -10 5 -10 12 0 17 -81 171 -94 180 -6 4 -7 8 -2 8 4 0
1 12 -9 26 -9 14 -31 51 -48 83 -17 31 -38 68 -46 83 -9 14 -38 64 -65 110
-27 45 -53 86 -58 89 -6 3 -9 10 -9 15 1 5 -4 16 -11 25 -12 15 -23 32 -50 82
-7 12 -16 24 -19 27 -3 3 -14 20 -23 38 -9 17 -21 32 -26 32 -6 0 -9 4 -8 8 3
7 -156 258 -172 272 -8 8 -103 150 -118 176 -7 13 -17 24 -23 24 -5 0 -9 4 -9
10 0 5 -21 39 -47 75 -27 37 -52 75 -58 86 -17 33 -34 30 -61 -11z"/>
</g>
</svg>
